<?xml version="1.0" standalone="no"?><!DOCTYPE svg PUBLIC "-//W3C//DTD SVG 1.1//EN" "http://www.w3.org/Graphics/SVG/1.1/DTD/svg11.dtd"><svg t="1557544705264" class="icon" style="" viewBox="0 0 1024 1024" version="1.1" xmlns="http://www.w3.org/2000/svg" p-id="19326" xmlns:xlink="http://www.w3.org/1999/xlink" width="200" height="200"><defs><style type="text/css"></style></defs><path d="M0 64.056A64.08 64.08 0 0 1 64.056 0h895.888A64.08 64.08 0 0 1 1024 64.056v895.888a64.08 64.08 0 0 1-64.056 64.056H64.056A64.08 64.08 0 0 1 0 959.944V64.056zM438.08 247.04v43.52h150.4v241.28H420.16V576h168.32v228.48h44.8V576h170.88v-44.16H633.28V290.56h151.68v-43.52H438.08z m288.64 75.52C712.64 387.2 696 440.96 676.8 483.2l39.04 13.44c20.48-46.72 37.76-101.12 51.2-163.2l-40.32-10.88z m-239.36 3.84l-39.68 12.8c21.12 50.56 38.4 103.68 51.2 158.72l39.68-10.24c-15.36-60.8-32-114.56-51.2-161.28zM292.8 224l-32 31.36c46.08 34.56 83.2 67.84 110.08 99.2l31.36-32C372.8 289.28 336.32 256.64 292.8 224zM216 413.44v44.16h94.08v255.36c0 10.24-5.12 19.2-14.72 28.16l17.92 40.96c42.24-28.8 81.92-61.44 119.68-98.56l-12.8-48.64c-23.68 23.68-45.44 44.16-65.92 62.08V413.44H216z" p-id="19327"></path></svg>