<?xml version="1.0" standalone="no"?><!DOCTYPE svg PUBLIC "-//W3C//DTD SVG 1.1//EN" "http://www.w3.org/Graphics/SVG/1.1/DTD/svg11.dtd"><svg t="1557544540259" class="icon" style="" viewBox="0 0 1083 1024" version="1.1" xmlns="http://www.w3.org/2000/svg" p-id="13602" xmlns:xlink="http://www.w3.org/1999/xlink" width="211.5234375" height="200"><defs><style type="text/css"></style></defs><path d="M135.40352 919.14752a72.41728 72.41728 0 0 0 21.76512 50.67776 73.8816 73.8816 0 0 0 51.98336 21.66272h668.4672a73.86624 73.86624 0 0 0 51.98336-21.66272 72.36608 72.36608 0 0 0 21.76512-50.67776V437.08928H135.40352v482.05824z m251.45344-316.94336a103.87968 103.87968 0 0 1 32.69632-32.49152 93.15328 93.15328 0 0 1 41.09824-13.2864 94.3872 94.3872 0 0 1 83.41504 34.94912 90.4448 90.4448 0 0 1 82.18624-34.94912 98.46784 98.46784 0 0 1 42.3168 13.2864 114.59584 114.59584 0 0 1 31.43168 32.49152 107.90912 107.90912 0 0 1 14.4896 68.6592 141.1072 141.1072 0 0 1-28.99968 72.34048c-4.84352 6.12864-9.68704 13.28128-15.71328 20.43392a1417.74848 1417.74848 0 0 1-15.71328 19.41504 469.48864 469.48864 0 0 1-48.36864 46.99648c-15.6928 13.0816-33.8432 26.36288-53.13024 39.64416a14.3104 14.3104 0 0 1-16.9216 0 562.9696 562.9696 0 0 1-54.41536-39.64416 636.53376 636.53376 0 0 1-48.34816-46.99648c-4.82304-6.13376-10.86976-13.2864-15.71328-19.41504-6.03136-7.15264-10.87488-14.30528-15.7184-20.43392a141.24032 141.24032 0 0 1-28.99968-72.34048 107.80672 107.80672 0 0 1 14.40768-68.6592z m681.76384-325.3248a48.88576 48.88576 0 0 0-33.85344-14.51008h-99.11296l-39.8848-132.41856c0-1.22368 0-2.45248-1.22368-2.45248a67.98336 67.98336 0 0 0-51.968-48.22528 136.8576 136.8576 0 0 0-72.5248 6.12864 36.90496 36.90496 0 0 0-8.45824 2.24768l-116.04992 39.84896L462.99648 21.44768a20.5312 20.5312 0 0 0-6.12864-3.47136 120.04864 120.04864 0 0 0-95.5136-12.0576A131.1232 131.1232 0 0 0 281.65632 62.5152c-2.048 2.05824-3.69664 4.48512-4.84352 7.15264L163.19488 262.36928H48.35328a48.86528 48.86528 0 0 0-33.8432 14.51008 48.0256 48.0256 0 0 0-14.51008 33.72032v78.464a49.23392 49.23392 0 0 0 48.35328 48.0256H103.95648v482.05824a105.18016 105.18016 0 0 0 31.43168 73.56928 107.904 107.904 0 0 0 73.74848 30.03904h668.46208c57.53344 0.14336 104.45312-46.07488 105.18016-103.6032V437.08928h51.968a49.19296 49.19296 0 0 0 48.35328-48.0256V310.59968a48.06656 48.06656 0 0 0-14.47936-33.72032z m-296.15616-160.20992a12.7488 12.7488 0 0 0 6.12864-2.44736 103.67488 103.67488 0 0 1 56.8064-3.47648 38.92224 38.92224 0 0 1 30.22848 26.35776v2.4576l37.47328 122.81344h-26.56768l-195.82464-114.43712 91.75552-31.26784z m-166.8352 24.11008l209.13152 121.58976H441.23136l95.5136-162.6624 68.88448 41.07264zM303.4368 85.40672l1.20832-1.2288v-1.22368c1.2032-1.2288 1.2032-2.4576 2.41152-3.67616 1.152-0.87552 2.00704-2.08896 2.432-3.47136h1.2032v-1.2288a103.94624 103.94624 0 0 1 56.8064-37.39648 99.51744 99.51744 0 0 1 78.57152 10.8288L507.71968 88.8832 404.98176 262.36928H199.49056l103.94624-176.96256z m647.936 833.7408a72.3456 72.3456 0 0 1-21.76512 50.67776 73.89184 73.89184 0 0 1-51.98336 21.66272H209.15712a73.85088 73.85088 0 0 1-51.98336-21.66272 72.41728 72.41728 0 0 1-21.76512-50.67776V437.08928h815.96416v482.05824z m100.31104-530.08384a20.73088 20.73088 0 0 1-4.81792 11.8528 21.30944 21.30944 0 0 1-12.09856 4.90496H48.37376a21.30432 21.30432 0 0 1-12.07808-4.90496 20.64384 20.64384 0 0 1-4.84352-11.8528V310.59968a21.79584 21.79584 0 0 1 4.84352-12.0576 22.4512 22.4512 0 0 1 12.07808-4.70016h986.3936c4.4032 0.35328 8.60672 1.98656 12.09856 4.70016 2.78528 3.44064 4.46464 7.64416 4.81792 12.0576v78.464zM302.2336 191.4624L372.34688 227.4304l14.50496-27.58656-70.10816-36.1728-14.51008 27.79136z m132.97152-77.24032l-70.10816-37.4016-15.7184 27.79136 70.11328 37.4016 15.71328-27.79136z m0 0" p-id="13603"></path></svg>