<?xml version="1.0" standalone="no"?><!DOCTYPE svg PUBLIC "-//W3C//DTD SVG 1.1//EN" "http://www.w3.org/Graphics/SVG/1.1/DTD/svg11.dtd"><svg t="1557544121151" class="icon" style="" viewBox="0 0 1026 1024" version="1.1" xmlns="http://www.w3.org/2000/svg" p-id="5777" xmlns:xlink="http://www.w3.org/1999/xlink" width="200.390625" height="200"><defs><style type="text/css"></style></defs><path d="M89.868974 1022.73424H22.783684C10.126082 1022.73424 0 1012.608158 0 999.950556V227.836836c0-12.657602 10.126082-22.783684 22.783684-22.783684h67.08529c12.657602 0 22.783684 10.126082 22.783684 22.783684v772.11372c0 12.657602-10.126082 22.783684-22.783684 22.783684zM979.698393 0h-784.771323C172.143387 0 151.891224 20.252163 151.891224 44.301607v935.396786c0 24.049444 20.252163 44.301607 44.301607 44.301607h784.771322c24.049444 0 44.301607-20.252163 44.301607-44.301607V44.301607C1024 20.252163 1005.013597 0 979.698393 0zM479.723115 162.017305h146.828183v45.567367h-91.134734v43.035847h77.211372v46.833127h-77.211372v49.364648h94.932014v46.833128H479.723115V162.017305z m-237.962917 0h56.959209l58.224969 111.386898 22.783683 51.896168h1.265761c-2.53152-24.049444-7.594561-58.224969-7.594562-86.071694v-77.211372h53.161929v231.634117h-56.959209l-56.959209-111.386898-22.783684-50.630408h-1.26576c2.53152 25.315204 7.594561 58.224969 7.594561 86.071694v77.211372h-53.161928V162.017305z m269.606922 691.105068H244.291718v-60.756489h268.341162v60.756489z m0-151.891223H244.291718v-60.75649h268.341162v60.75649z m0-150.625464H244.291718v-60.756489h268.341162v60.756489z m377.196539 302.516687H588.578492V489.849197h299.985167v363.273176z m7.594561-459.470951h-69.616811l-21.517923-101.260816c-3.797281-17.720643-6.328801-36.707046-8.860322-54.427689h-1.26576c-2.53152 17.720643-5.063041 36.707046-8.860321 54.427689l-20.252163 101.260816H696.168109l-41.770087-231.634117h56.959209l15.189123 105.058097 8.860321 73.414091h1.26576c3.797281-24.049444 8.860321-49.364648 13.923362-73.414091l24.049444-105.058097h46.833127l24.049444 105.058097c5.063041 24.049444 8.860321 48.098888 13.923362 73.414091h1.26576c2.53152-25.315204 6.328801-49.364648 8.860322-73.414091l15.189122-105.058097H936.662546l-40.504326 231.634117z" p-id="5778"></path></svg>