<?xml version="1.0" standalone="no"?><!DOCTYPE svg PUBLIC "-//W3C//DTD SVG 1.1//EN" "http://www.w3.org/Graphics/SVG/1.1/DTD/svg11.dtd"><svg t="1557544426234" class="icon" style="" viewBox="0 0 1024 1024" version="1.1" xmlns="http://www.w3.org/2000/svg" p-id="12834" xmlns:xlink="http://www.w3.org/1999/xlink" width="200" height="200"><defs><style type="text/css"></style></defs><path d="M205.00814 921.322479c-56.515155 0-102.33062-45.815465-102.33062-102.33062l0-665.149029c0-56.515155 45.814442-102.33062 102.33062-102.33062l716.314339 0 0 869.810269L205.00814 921.322479zM307.33876 563.16531l151.980413-71.52808c-36.70497-14.539134-65.914222-43.748387-80.453357-80.453357L307.33876 563.16531zM409.66938 358.50407c0 56.515155 45.814442 102.33062 102.33062 102.33062 56.515155 0 102.33062-45.815465 102.33062-102.33062 0-56.516178-45.815465-102.33062-102.33062-102.33062C455.483822 256.17345 409.66938 301.987892 409.66938 358.50407zM567.119365 226.263234c34.783201 14.515598 62.60485 42.337247 77.120448 77.120448l72.420403-149.540851L567.119365 226.263234zM859.924107 716.66124l-654.915967 0c-22.605857 0-40.932248 18.326391-40.932248 40.932248l0 61.398372c0 22.605857 18.326391 40.932248 40.932248 40.932248l654.915967 0L859.924107 716.66124zM512 409.66938c-28.257577 0-51.16531-22.907733-51.16531-51.16531 0-28.257577 22.907733-51.16531 51.16531-51.16531s51.16531 22.907733 51.16531 51.16531C563.16531 386.761648 540.257577 409.66938 512 409.66938z" p-id="12835"></path></svg>