<?xml version="1.0" standalone="no"?><!DOCTYPE svg PUBLIC "-//W3C//DTD SVG 1.1//EN" "http://www.w3.org/Graphics/SVG/1.1/DTD/svg11.dtd"><svg t="1558255711560" class="icon" style="" viewBox="0 0 1024 1024" version="1.1" xmlns="http://www.w3.org/2000/svg" p-id="16718" xmlns:xlink="http://www.w3.org/1999/xlink" width="200" height="200"><defs><style type="text/css"></style></defs><path d="M845.718441 784.89237c93.273974 26.61828 161.5711 112.480426 161.5711 214.333846 0 8.35946-0.456894 16.600466-1.370681 24.756862h-443.017533a224.317816 224.317816 0 0 1-1.370681-24.756862c0-101.85342 68.263282-187.715565 161.554179-214.333846a123.801233 123.801233 0 0 1-62.492886-107.589972 123.801233 123.801233 0 0 1 123.818155-123.818155 123.801233 123.801233 0 0 1 123.801232 123.818155 123.767389 123.767389 0 0 1-62.492885 107.589972z m-357.459984 239.090708H115.534844c-54.607241 0-98.807463-44.420207-98.807463-99.179746V107.877646a99.044371 99.044371 0 0 1 99.078214-99.196668h693.547503c54.641085 0 98.875151 44.420207 98.87515 99.196668v414.740899a197.378018 197.378018 0 0 0-123.818154-43.438732c-109.434469 0-198.105663 88.688117-198.105664 198.122585a197.47955 197.47955 0 0 0 18.986466 84.779138c-71.698445 54.25188-118.047758 140.283245-118.047758 237.161602 0 8.241006 0.33844 16.498934 1.015319 24.73994zM227.101482 231.543503a37.0253 37.0253 0 0 0-37.0253 36.974534v0.16922c0 20.526366 16.600466 37.143754 37.0253 37.143755h470.769587a37.008378 37.008378 0 0 0 37.0253-36.974535v-0.16922a37.092988 37.092988 0 0 0-37.0253-37.143754h-470.769587z m0.067688 247.619388a37.042222 37.042222 0 0 0-37.092988 36.974534v0.186142c0 20.526366 16.71892 37.143754 37.092988 37.143754H499.646952a37.042222 37.042222 0 0 0 37.092988-36.974534v-0.186142a37.19452 37.19452 0 0 0-37.092988-37.143754H227.16917z m-0.016922 247.653231a37.008378 37.008378 0 0 0-37.059144 36.957613v0.203063c0 20.509444 16.63431 37.126832 37.059144 37.126833h173.484177a37.042222 37.042222 0 0 0 37.076067-36.974535v-0.16922a37.126832 37.126832 0 0 0-37.076067-37.143754H227.152248z" fill="#e73835" p-id="16719"></path></svg>