<?xml version="1.0" standalone="no"?><!DOCTYPE svg PUBLIC "-//W3C//DTD SVG 1.1//EN" "http://www.w3.org/Graphics/SVG/1.1/DTD/svg11.dtd"><svg t="1558255831247" class="icon" style="" viewBox="0 0 1024 1024" version="1.1" xmlns="http://www.w3.org/2000/svg" p-id="22272" xmlns:xlink="http://www.w3.org/1999/xlink" width="200" height="200"><defs><style type="text/css"></style></defs><path d="M359.936 173.056c0 84.48-69.12 152.576-154.112 152.576s-154.112-68.096-154.112-152.576 69.12-152.576 154.112-152.576 154.112 68.096 154.112 152.576z m207.872-76.288c0 41.984-34.304 76.288-77.312 76.288s-77.312-34.304-77.312-76.288 34.304-76.288 77.312-76.288 77.312 34.304 77.312 76.288z m223.744 18.944c0 41.984-34.304 76.288-77.312 76.288s-77.312-34.304-77.312-76.288 34.304-76.288 77.312-76.288 77.312 34.304 77.312 76.288zM972.8 215.04c0 41.984-34.304 76.288-77.312 76.288s-77.312-34.304-77.312-76.288 34.304-76.288 77.312-76.288S972.8 173.056 972.8 215.04z m-681.472 196.608s49.152-134.656 237.056-157.184c0 0 290.304-19.968 339.968 263.168 24.576 138.24 14.336 437.76-209.92 483.328-54.272 10.752-210.944-2.56-190.976-142.848 7.168-49.664 54.272-130.048 0-200.192-37.376-49.152-225.28-63.488-176.128-246.272" p-id="22273" fill="#75b628"></path></svg>